<?xml version="1.0" encoding="UTF-8"?>
<svg version="1.1" xmlns="http://www.w3.org/2000/svg" width="500" height="500">
<path d="M0 0 C165 0 330 0 500 0 C500 165 500 330 500 500 C335 500 170 500 0 500 C0 335 0 170 0 0 Z " fill="#000000" transform="translate(0,0)"/>
<path d="M0 0 C7.68618035 -0.12713055 15.37208796 -0.21449075 23.05908203 -0.2746582 C25.67214084 -0.29974952 28.28512982 -0.33383029 30.89794922 -0.37719727 C34.66130841 -0.43808146 38.4237369 -0.46626517 42.1875 -0.48828125 C43.34926758 -0.51408768 44.51103516 -0.5398941 45.70800781 -0.56648254 C52.78782862 -0.56891202 57.61378607 0.2184215 63 5 C66.08697976 8.30615797 68.24708695 11.94647996 70.46875 15.875 C71.11593994 17.01404785 71.76312988 18.1530957 72.42993164 19.32666016 C73.11999565 20.55108354 73.81001745 21.77553071 74.5 23 C75.22016953 24.27027602 75.94079642 25.54029284 76.66186523 26.81005859 C78.10717544 29.35627705 79.55040242 31.90365609 80.99169922 34.45214844 C83.66865727 39.18403803 86.36397883 43.90538144 89.0625 48.625 C89.53075195 49.44492432 89.99900391 50.26484863 90.48144531 51.10961914 C94.5512053 58.23032327 98.64960793 65.33440286 102.75 72.4375 C103.70640381 74.09579834 103.70640381 74.09579834 104.68212891 75.78759766 C107.35774825 80.42640988 110.03502773 85.06407917 112.73046875 89.69140625 C113.46617617 90.96091992 114.20185648 92.2304493 114.9375 93.5 C115.54464844 94.5415625 116.15179688 95.583125 116.77734375 96.65625 C118 99 118 99 118 101 C118.66 101 119.32 101 120 101 C120.27295898 100.28046143 120.54591797 99.56092285 120.82714844 98.81958008 C121.98060771 96.0466198 123.29738687 93.5052063 124.765625 90.88671875 C125.31863281 89.89865234 125.87164062 88.91058594 126.44140625 87.89257812 C127.33666016 86.30606445 127.33666016 86.30606445 128.25 84.6875 C128.87261719 83.57955078 129.49523437 82.47160156 130.13671875 81.33007812 C134.9179154 72.84994764 139.80635268 64.43503153 144.73828125 56.04174805 C149.01180391 48.75010976 153.14826338 41.38937533 157.25 34 C161.24594361 26.82945503 165.26879317 19.68489522 169.5625 12.6875 C169.94374023 12.05392578 170.32498047 11.42035156 170.71777344 10.76757812 C173.84420008 5.77085359 177.54041766 2.26299239 183 0 C185.56903076 -0.24050903 185.56903076 -0.24050903 188.50292969 -0.22705078 C189.60376892 -0.22689972 190.70460815 -0.22674866 191.83880615 -0.22659302 C193.02121887 -0.21627045 194.20363159 -0.20594788 195.421875 -0.1953125 C196.63699768 -0.1924826 197.85212036 -0.18965271 199.10406494 -0.18673706 C202.98614335 -0.17553954 206.86799129 -0.15043534 210.75 -0.125 C213.38150709 -0.11496966 216.01301779 -0.10584391 218.64453125 -0.09765625 C225.09643284 -0.07560157 231.54819995 -0.04212804 238 0 C238 1.65 238 3.3 238 5 C236.83984375 5.23783203 236.83984375 5.23783203 235.65625 5.48046875 C228.91131095 6.99140188 223.49066215 8.76434634 218 13 C217.03578125 13.73863281 216.0715625 14.47726563 215.078125 15.23828125 C211.76603613 18.03088752 209.46681224 21.19203539 207.125 24.8125 C206.48111328 25.79210693 206.48111328 25.79210693 205.82421875 26.79150391 C202.48824979 31.98230131 199.69990488 37.3508587 197.02197266 42.90258789 C194.3655255 48.37979177 191.38776596 53.59340163 188.26464844 58.81567383 C184.16617628 65.67824961 180.20367105 72.6159319 176.25 79.5625 C171.15432248 88.5090716 166.01756942 97.42891819 160.8125 106.3125 C156.30689995 114.00438426 151.86985122 121.73019783 147.5 129.5 C142.91959502 137.64294218 138.27194209 145.7434559 133.5625 153.8125 C132.9953125 154.78445313 132.428125 155.75640625 131.84375 156.7578125 C130.76198079 158.60679391 129.67509229 160.452792 128.58251953 162.29541016 C127.49452067 164.15484418 126.43436501 166.03076244 125.39794922 167.91943359 C124.88377441 168.8367627 124.36959961 169.7540918 123.83984375 170.69921875 C123.38859131 171.52639404 122.93733887 172.35356934 122.47241211 173.20581055 C121.98651611 173.79789307 121.50062012 174.38997559 121 175 C119.68 175 118.36 175 117 175 C109.30140846 161.68478386 101.62245425 148.35895008 94 135 C88.24499288 124.91407065 82.45754144 114.84736521 76.64672852 104.79345703 C71.71109792 96.24785767 66.81501709 87.68005248 61.92941284 79.10580444 C56.62829504 69.80487683 51.24035841 60.55738897 45.80761719 51.33276367 C42.41366531 45.53549781 39.23592015 39.67216169 36.1875 33.6875 C30.05790528 21.81780252 22.48096527 12.26933683 9.8125 7.1875 C6.51533979 6.16051567 3.4208868 5.42761085 0 5 C0 3.35 0 1.7 0 0 Z " fill="#FDFDFD" transform="translate(131,113)"/>
<path d="M0 0 C0.33 0 0.66 0 1 0 C1.00546844 1.95318649 1.00546844 1.95318649 1.01104736 3.9458313 C1.04798921 16.21737729 1.10575336 28.48867215 1.18390274 40.76002693 C1.22341104 47.06886969 1.25558326 53.37757215 1.27099609 59.68652344 C1.28614029 65.77507661 1.32054683 71.8632442 1.36830902 77.95162582 C1.38314577 80.27439904 1.39104232 82.59722731 1.39188385 84.92004776 C1.39424825 88.17384193 1.42128719 91.42656595 1.45410156 94.68017578 C1.4490712 95.64043167 1.44404083 96.60068756 1.43885803 97.59004211 C1.52656664 103.21167825 2.16742747 106.5860944 6 111 C8.90092502 112.93395001 9.89674737 113.30131941 13.1875 113.625 C15.0746875 113.810625 15.0746875 113.810625 17 114 C17 115.98 17 117.96 17 120 C-3.13 120 -23.26 120 -44 120 C-44 118.02 -44 116.04 -44 114 C-43.40832031 113.97421875 -42.81664062 113.9484375 -42.20703125 113.921875 C-36.95018101 113.54454807 -33.82251643 112.94197007 -30 109 C-28.65246717 106.30493433 -28.91921649 104.27624118 -28.96923828 101.25952148 C-28.98479767 100.05323593 -29.00035706 98.84695038 -29.01638794 97.60411072 C-29.03418304 96.28971512 -29.05197815 94.97531952 -29.0703125 93.62109375 C-29.08922055 90.10542424 -29.09198481 86.58971703 -29.09665108 83.07400417 C-29.10479965 79.41144752 -29.13187753 75.75104066 -29.20214844 72.08911133 C-29.75290359 41.79840895 -29.75290359 41.79840895 -18.38812256 28.65725708 C-16.30802158 26.17385816 -14.65994639 23.4605682 -12.96875 20.703125 C-12.38609375 19.78789062 -11.8034375 18.87265625 -11.203125 17.9296875 C-10.64109375 17.04539063 -10.0790625 16.16109375 -9.5 15.25 C-8.90703125 14.31929687 -8.3140625 13.38859375 -7.703125 12.4296875 C-6.84460938 11.08003906 -6.84460938 11.08003906 -5.96875 9.703125 C-5.46794922 8.91583008 -4.96714844 8.12853516 -4.45117188 7.31738281 C-3.39595967 5.63230975 -2.37564746 3.92522706 -1.37695312 2.20605469 C-0.92255859 1.47805664 -0.46816406 0.75005859 0 0 Z " fill="#F9F9F9" transform="translate(358,178)"/>
<path d="M0 0 C2.38754537 2.32159565 4.15472111 4.61310128 5.93359375 7.4375 C6.50142578 8.3346875 7.06925781 9.231875 7.65429688 10.15625 C8.24275391 11.0946875 8.83121094 12.033125 9.4375 13 C9.99115234 13.8765625 10.54480469 14.753125 11.11523438 15.65625 C12.34618545 17.6060546 13.55588814 19.56935993 14.74951172 21.54223633 C16.37211814 24.14491744 18.17843158 26.49185904 20.11376953 28.86987305 C30.88277709 42.78459824 30.5208108 56.90480191 30.05438232 73.69573975 C29.91019957 79.30786314 29.87180451 84.92161604 29.83557129 90.53528404 C29.81301237 92.47546484 29.75795521 94.41518133 29.70214844 96.35469055 C29.49920596 105.00917381 29.49920596 105.00917381 34 112 C36.90092502 113.93395001 37.89674737 114.30131941 41.1875 114.625 C43.0746875 114.810625 43.0746875 114.810625 45 115 C45 116.65 45 118.3 45 120 C25.2 120 5.4 120 -15 120 C-15 118.35 -15 116.7 -15 115 C-14.39671875 114.90203125 -13.7934375 114.8040625 -13.171875 114.703125 C-8.30783959 113.79307967 -5.10912858 113.14550477 -2 109 C-0.83533305 106.6706661 -0.86305401 105.29258867 -0.84178162 102.69735718 C-0.8319928 101.79429337 -0.82220398 100.89122955 -0.81211853 99.96080017 C-0.80636307 98.9674617 -0.8006076 97.97412323 -0.79467773 96.95068359 C-0.77982834 95.38479744 -0.77982834 95.38479744 -0.76467896 93.78727722 C-0.73300079 90.324354 -0.70828156 86.86141704 -0.68359375 83.3984375 C-0.66302968 81.00232581 -0.64203336 78.60621779 -0.62062073 76.21011353 C-0.56534359 69.8939511 -0.51595922 63.57775562 -0.46777344 57.26153564 C-0.41759956 50.82016041 -0.36189205 44.37883333 -0.30664062 37.9375 C-0.19899006 25.29170806 -0.09737266 12.64587504 0 0 Z " fill="#FAFAFA" transform="translate(140,177)"/>
<path d="M0 0 C17.16 0 34.32 0 52 0 C47.04212359 9.29601826 42.07930543 18.48971122 36.75 27.5625 C36.151875 28.58923828 35.55375 29.61597656 34.9375 30.67382812 C32.08672518 35.54600412 29.20823586 40.35441095 26 45 C23.44698211 42.68061309 21.88270455 40.28338472 20.21484375 37.2734375 C19.42533325 35.86034302 19.42533325 35.86034302 18.61987305 34.41870117 C18.06468994 33.41427979 17.50950684 32.4098584 16.9375 31.375 C12.37510616 23.19408931 7.74692979 15.06806297 2.89624023 7.05419922 C0 2.21277732 0 2.21277732 0 0 Z " fill="#FCFCFC" transform="translate(224,113)"/>
<path d="M0 0 C3.63 0 7.26 0 11 0 C16 12.95454545 16 12.95454545 16 19 C16.66 19 17.32 19 18 19 C18.19335938 18.04738281 18.38671875 17.09476562 18.5859375 16.11328125 C18.84632813 14.85902344 19.10671875 13.60476563 19.375 12.3125 C19.75785156 10.45044922 19.75785156 10.45044922 20.1484375 8.55078125 C21 5 21 5 23 0 C26.63 0 30.26 0 34 0 C34 11.22 34 22.44 34 34 C31.36 34 28.72 34 26 34 C25.505 27.565 25.505 27.565 25 21 C23.68 25.29 22.36 29.58 21 34 C18.36 34 15.72 34 13 34 C11.68 29.71 10.36 25.42 9 21 C8.67 25.29 8.34 29.58 8 34 C5.36 34 2.72 34 0 34 C0 22.78 0 11.56 0 0 Z " fill="#EEEEEE" transform="translate(189,312)"/>
<path d="M0 0 C3.20824247 1.49717982 5.72932114 3.27518536 8 6 C9.32674162 9.98022487 9.26251364 13.64363761 9.3125 17.8125 C9.34150391 18.60720703 9.37050781 19.40191406 9.40039062 20.22070312 C9.45869456 25.64296879 8.63667449 28.72117398 5 33 C0.32823929 36.11450714 -4.53435014 35.71644329 -10 35 C-14.40555087 32.00422541 -15.60404871 29.01218719 -17 24 C-17.59528966 17.97096168 -18.22121196 11.32374371 -15.3125 5.8125 C-10.89428516 0.43899546 -6.79695333 -1.03401927 0 0 Z " fill="#F2F2F2" transform="translate(249,311)"/>
<path d="M0 0 C2.64 0 5.28 0 8 0 C9.4797435 2.62467634 10.95881943 5.24972493 12.4375 7.875 C12.85837891 8.62136719 13.27925781 9.36773437 13.71289062 10.13671875 C14.11572266 10.85214844 14.51855469 11.56757813 14.93359375 12.3046875 C15.30540771 12.96452637 15.67722168 13.62436523 16.06030273 14.30419922 C16.73465202 15.52114651 17.37779302 16.75558603 18 18 C18.33 12.06 18.66 6.12 19 0 C21.31 0 23.62 0 26 0 C26 11.22 26 22.44 26 34 C23.36 34 20.72 34 18 34 C14.7 28.06 11.4 22.12 8 16 C7.67 21.94 7.34 27.88 7 34 C4.69 34 2.38 34 0 34 C0 22.78 0 11.56 0 0 Z " fill="#F0F0F0" transform="translate(285,312)"/>
<path d="M0 0 C2.31 0 4.62 0 7 0 C7 11.22 7 22.44 7 34 C4.69 34 2.38 34 0 34 C0 22.78 0 11.56 0 0 Z " fill="#FFFFFF" transform="translate(268,312)"/>
<path d="M0 0 C1.98 0 3.96 0 6 0 C7.49821059 3.37097383 8 5.20442119 8 9 C8.66 9 9.32 9 10 9 C10.33 6.03 10.66 3.06 11 0 C12.98 0 14.96 0 17 0 C17 5.61 17 11.22 17 17 C15.68 17 14.36 17 13 17 C12.67 15.68 12.34 14.36 12 13 C11.67 14.32 11.34 15.64 11 17 C9.68 17 8.36 17 7 17 C6.34 15.02 5.68 13.04 5 11 C4.67 12.98 4.34 14.96 4 17 C2.68 17 1.36 17 0 17 C0 11.39 0 5.78 0 0 Z " fill="#E9E9E9" transform="translate(242,361)"/>
<path d="M0 0 C1.7325 0.1546875 1.7325 0.1546875 3.5 0.3125 C5.92930667 3.95646001 5.79874985 5.85162081 5.8125 10.1875 C5.82925781 11.40179688 5.84601563 12.61609375 5.86328125 13.8671875 C5.47581402 17.54187675 4.79969276 19.44325716 2.5 22.3125 C-0.5625 22.8125 -0.5625 22.8125 -3.5 22.3125 C-6.07528248 18.44957629 -5.79454471 15.22303122 -5.75 10.75 C-5.75773438 9.96947266 -5.76546875 9.18894531 -5.7734375 8.38476562 C-5.74627027 0.51305985 -5.74627027 0.51305985 0 0 Z " fill="#050505" transform="translate(245.5,317.6875)"/>
<path d="M0 0 C8.14583333 -0.47916667 8.14583333 -0.47916667 11.5625 1.4375 C13.7145847 5.27382489 13.74831272 8.70704811 13 13 C11.5625 15.5625 11.5625 15.5625 9 17 C5.91796887 17.31297734 3.11460416 17.18321201 0 17 C0 11.39 0 5.78 0 0 Z " fill="#EAEAEA" transform="translate(299,361)"/>
<path d="M0 0 C1.32 0 2.64 0 4 0 C4 2.31 4 4.62 4 7 C5.65 7 7.3 7 9 7 C9 4.69 9 2.38 9 0 C10.32 0 11.64 0 13 0 C13 5.61 13 11.22 13 17 C11.68 17 10.36 17 9 17 C9 14.69 9 12.38 9 10 C7.35 10 5.7 10 4 10 C4 12.31 4 14.62 4 17 C2.68 17 1.36 17 0 17 C0 11.39 0 5.78 0 0 Z " fill="#E6E6E6" transform="translate(215,361)"/>
<path d="M0 0 C1.65 0 3.3 0 5 0 C7.09570426 5.69398894 8.45018084 10.95198929 9 17 C7.68 17 6.36 17 5 17 C5 15.68 5 14.36 5 13 C3.35 13 1.7 13 0 13 C0 14.32 0 15.64 0 17 C-1.32 17 -2.64 17 -4 17 C-3.45018084 10.95198929 -2.09570426 5.69398894 0 0 Z " fill="#E0E0E0" transform="translate(192,361)"/>
<path d="M0 0 C3.3 0 6.6 0 10 0 C10 0.99 10 1.98 10 3 C7.69 3 5.38 3 3 3 C3 4.32 3 5.64 3 7 C4.98 7 6.96 7 9 7 C9 7.99 9 8.98 9 10 C7.02 10 5.04 10 3 10 C3 11.32 3 12.64 3 14 C5.31 14 7.62 14 10 14 C10 14.99 10 15.98 10 17 C6.7 17 3.4 17 0 17 C0 11.39 0 5.78 0 0 Z " fill="#FBFBFB" transform="translate(274,361)"/>
<path d="M0 0 C4 1 4 1 5 2 C5.1875 5.4375 5.1875 5.4375 5 9 C4.34 9.66 3.68 10.32 3 11 C2.01 11 1.02 11 0 11 C0 7.37 0 3.74 0 0 Z " fill="#070707" transform="translate(303,364)"/>
</svg>
